# xmcd
#
# Track frame offsets:
#	183
#	57300
#	72075
#	116075
#	136073
#	196723
#	225688
#	257983
#
# Disc length: 4112 seconds
# Revision: 0
# Processed by: cddbd v1.5.2PL0 Copyright (c) Steve Scherf et al.
# Submitted via: dBpowerAMP V12.0
#
DISCID=6d100e08
DTITLE=Herre-Jan Stegenga, Jacob Bogaart - Recital of Russian Music
DYEAR=1990
DGENRE=Classical
TTITLE0=Shostakovich - Sonata in D Minor - 1. Moderato
TTITLE1=Shostakovich - Sonata in D Minor - 2. Moderato con moto
TTITLE2=Shostakovich - Sonata in D Minor - 3. Largo
TTITLE3=Shostakovich - Sonata in D Minor - 4. Allegretto
TTITLE4=Rachmaninov - Sonata in G Minor - 1. Lento-Allegro moderato
TTITLE5=Rachmaninov - Sonata in G Minor - 2. Allegro scherzando
TTITLE6=Rachmaninov - Sonata in G Minor - 3. Andante
TTITLE7=Rachmaninov - Sonata in G Minor - 4. Allegro mosso
EXTD=
EXTT0=
EXTT1=
EXTT2=
EXTT3=
EXTT4=
EXTT5=
EXTT6=
EXTT7=
PLAYORDER=
